<?xml version="1.0" standalone="no"?>
<!DOCTYPE svg PUBLIC "-//W3C//DTD SVG 20010904//EN"
 "http://www.w3.org/TR/2001/REC-SVG-20010904/DTD/svg10.dtd">
<svg version="1.0" xmlns="http://www.w3.org/2000/svg"
 width="500.000000pt" height="500.000000pt" viewBox="0 0 500.000000 500.000000"
 preserveAspectRatio="xMidYMid meet">

<g transform="translate(0.000000,500.000000) scale(0.100000,-0.100000)"
fill="#000000" stroke="none">
<path d="M2245 4310 c-33 -4 -103 -18 -155 -30 -694 -163 -1227 -705 -1381
-1406 -17 -79 -22 -144 -26 -319 -4 -194 -2 -235 17 -349 87 -513 374 -951
811 -1236 526 -343 1207 -385 1774 -110 373 181 661 465 844 835 259 521 255
1114 -10 1635 -251 491 -695 834 -1244 957 -96 22 -139 25 -340 28 -126 2
-257 0 -290 -5z m435 -25 c263 -19 584 -137 829 -305 629 -432 918 -1219 717
-1954 -137 -498 -496 -922 -971 -1146 -761 -360 -1681 -131 -2190 545 -386
513 -468 1210 -212 1793 169 383 469 698 843 885 232 116 453 174 724 191 57
3 113 1 260 -9z"/>
<path d="M2315 4229 c-276 -29 -587 -146 -815 -307 -123 -86 -336 -300 -422
-422 -86 -122 -167 -277 -212 -409 -34 -98 -76 -247 -76 -270 0 -8 85 -11 279
-11 l278 0 28 78 c79 225 230 430 415 566 l65 48 0 57 c0 62 23 110 56 118 12
3 19 14 19 29 0 28 -82 219 -105 244 -14 16 -12 18 32 36 26 10 51 21 55 22 5
2 8 -7 8 -21 0 -14 18 -70 40 -125 24 -60 40 -116 40 -141 l0 -41 143 -1 c78
0 223 0 322 1 130 1 201 -3 255 -15 411 -86 747 -377 880 -762 l33 -93 288 0
c159 0 289 3 289 8 0 27 -65 245 -99 332 -147 379 -474 731 -846 910 -117 56
-309 123 -415 144 -168 34 -364 43 -535 25z m255 -126 c0 -10 3 -29 7 -43 l6
-24 -28 22 c-18 14 -42 22 -66 22 l-39 0 0 -45 c0 -49 10 -56 48 -29 22 15 22
15 22 -35 l0 -50 -29 17 c-16 9 -32 14 -35 12 -2 -3 -2 -24 1 -48 5 -36 9 -42
29 -42 32 0 75 18 91 38 11 15 13 11 11 -28 l-3 -45 -110 -3 -110 -3 3 130 c2
81 -1 138 -8 151 -10 20 -8 20 100 20 98 0 110 -2 110 -17z m162 1 c35 -6 36
-8 23 -28 -12 -17 -45 -182 -45 -222 0 -6 19 -14 43 -17 33 -5 48 -2 70 14 30
22 31 20 16 -34 -8 -31 -14 -36 -32 -33 -12 3 -56 10 -97 16 -112 17 -112 17
-96 43 17 26 50 220 43 248 -6 21 9 24 75 13z m-515 -116 c32 -50 73 -108 92
-129 36 -42 37 -40 -35 -57 -41 -9 -42 -9 -51 22 -8 29 -12 31 -52 30 -50 -1
-63 -16 -55 -60 5 -29 4 -32 -28 -37 -40 -6 -42 -4 -30 20 13 25 35 239 28
268 -5 19 -2 24 16 28 53 10 57 7 115 -85z m825 36 c4 -3 4 -14 -2 -24 -5 -10
-10 -40 -10 -66 l0 -48 45 44 c25 24 45 50 45 56 0 9 11 8 40 -3 l39 -16 -42
-27 c-83 -54 -147 -141 -147 -200 0 -11 -2 -20 -5 -20 -5 0 -88 32 -93 36 -2
1 7 17 20 34 21 29 23 40 20 132 -2 55 -7 111 -12 124 l-9 23 51 -20 c29 -11
56 -23 60 -25z"/>
<path d="M2126 3958 c-3 -13 -6 -33 -6 -46 0 -19 4 -22 28 -16 15 4 28 7 29 8
1 1 -9 18 -21 39 -22 36 -24 37 -30 15z"/>
<path d="M1905 3653 c-39 -38 -46 -108 -17 -165 l19 -36 -46 -5 c-34 -4 -52
-13 -73 -36 -37 -41 -37 -79 2 -346 17 -114 30 -209 30 -211 0 -2 -8 -4 -18
-4 -23 0 -52 -30 -52 -54 0 -30 20 -56 43 -56 40 0 45 -12 51 -135 16 -309 14
-293 59 -342 68 -74 237 -152 365 -169 45 -6 52 -9 52 -29 0 -20 -11 -25 -107
-50 -60 -14 -136 -28 -169 -30 -74 -4 -121 -26 -130 -60 -16 -65 32 -78 125
-34 57 28 222 78 259 79 8 0 12 -21 12 -73 l0 -74 -82 -17 c-124 -27 -205 -63
-259 -115 -123 -119 -39 -242 216 -316 229 -66 536 -48 724 43 65 31 138 99
143 133 2 18 19 29 87 55 87 34 101 45 101 79 0 37 -16 47 -76 50 -33 2 -70 8
-84 14 -23 10 -22 11 10 6 l35 -4 -34 11 -33 12 6 95 c3 53 7 155 8 226 l2
130 52 34 c37 24 58 46 68 72 14 35 13 45 -14 159 -17 67 -35 130 -40 140 -16
31 -42 39 -152 51 -57 6 -104 12 -106 13 -1 2 5 35 14 74 l16 72 67 0 c75 1
148 13 163 28 13 13 -7 85 -28 103 -13 11 -79 15 -278 19 l-261 5 -52 199
c-29 109 -63 214 -74 233 -24 39 -53 53 -109 53 l-38 0 11 35 c12 41 -3 105
-34 136 -17 17 -34 19 -188 19 -144 0 -172 -2 -186 -17z m374 -29 c12 -15 21
-36 20 -48 -1 -17 -2 -15 -9 7 -12 38 -29 57 -52 57 -15 0 -18 -4 -12 -17 4
-10 9 -36 10 -58 l3 -40 -10 45 c-12 49 -21 63 -44 66 -11 2 -14 -3 -11 -14
15 -49 16 -70 7 -92 -8 -22 -10 -18 -10 26 -1 30 -7 58 -17 70 -12 15 -15 16
-10 2 13 -44 16 -85 7 -108 -8 -21 -10 -17 -10 31 -1 31 -7 64 -15 74 -12 17
-14 12 -11 -50 4 -70 4 -70 -4 -14 -9 59 -16 79 -31 79 -6 0 -5 -11 0 -26 6
-14 9 -44 9 -67 -1 -42 -2 -42 -9 11 -10 65 -23 82 -66 82 -33 0 -33 0 -18
-27 7 -16 14 -37 13 -48 -1 -16 -2 -15 -8 6 -22 71 -64 92 -95 47 -9 -12 -16
-18 -16 -14 0 5 7 17 16 27 14 15 37 18 184 18 l168 1 21 -26z m-69 -68 c0
-65 -6 -56 -13 19 -4 39 -3 54 3 45 5 -8 10 -37 10 -64z m-203 -58 c-3 -8 -6
-5 -6 6 -1 11 2 17 5 13 3 -3 4 -12 1 -19z m420 -66 c29 -34 30 -53 3 -21
l-21 24 19 -40 c19 -41 76 -255 69 -261 -2 -2 -21 54 -41 125 -25 85 -47 140
-65 161 l-26 32 -175 -12 c-123 -8 -179 -16 -189 -25 -13 -13 -8 -50 36 -282
28 -148 49 -270 48 -271 -2 -2 -10 7 -19 20 -12 19 -87 393 -99 493 -3 29 -3
28 -12 -10 -6 -30 0 -101 24 -273 18 -128 31 -235 28 -238 -7 -7 -14 28 -28
138 -7 53 -15 95 -18 93 -4 -2 -5 15 -4 38 2 36 1 39 -7 17 -8 -22 -9 -20 -5
10 3 19 2 62 -2 95 -7 56 -8 58 -14 25 -5 -26 -7 -29 -8 -10 -1 24 18 112 34
155 7 20 6 20 -9 1 -9 -11 -16 -14 -16 -8 0 14 -88 16 -110 2 -19 -12 -9 -20
32 -30 32 -8 31 -8 -13 -9 -58 -1 -63 -14 -48 -128 6 -46 9 -88 7 -94 -7 -22
-30 181 -23 210 11 53 45 73 132 77 43 2 159 10 258 18 213 16 233 15 262 -22z
m-66 -132 c39 -166 35 -176 -7 -15 -34 134 -38 153 -28 142 3 -3 19 -60 35
-127z m-130 38 c10 -40 18 -80 18 -88 0 -8 -9 17 -19 55 -30 111 -32 120 -25
113 4 -3 15 -39 26 -80z m44 -6 c10 -40 15 -75 13 -77 -2 -2 -13 34 -25 81
-11 47 -17 82 -13 77 4 -4 15 -41 25 -81z m50 -45 c15 -65 25 -120 23 -123 -3
-2 -18 55 -35 127 -17 72 -27 127 -23 122 4 -4 20 -61 35 -126z m-229 2 c14
-56 23 -106 22 -111 -2 -4 -17 46 -34 112 -16 66 -26 116 -21 111 5 -5 20 -55
33 -112z m43 34 c12 -45 21 -87 20 -95 -1 -13 -48 158 -49 176 0 23 10 -6 29
-81z m55 -26 c14 -60 26 -114 25 -120 -1 -15 -58 202 -59 222 0 30 9 2 34
-102z m-264 78 c0 -8 -7 -15 -15 -15 -13 0 -14 3 -3 15 16 18 18 18 18 0z
m557 -117 c-3 -8 -6 -5 -6 6 -1 11 2 17 5 13 3 -3 4 -12 1 -19z m-190 -40 c-3
-8 -6 -5 -6 6 -1 11 2 17 5 13 3 -3 4 -12 1 -19z m-360 -25 c-3 -10 -5 -4 -5
12 0 17 2 24 5 18 2 -7 2 -21 0 -30z m320 15 c-3 -8 -6 -5 -6 6 -1 11 2 17 5
13 3 -3 4 -12 1 -19z m-90 -20 c-3 -8 -6 -5 -6 6 -1 11 2 17 5 13 3 -3 4 -12
1 -19z m151 -53 c0 -16 -2 -15 -8 5 -4 14 -8 34 -8 45 0 16 2 15 8 -5 4 -14 8
-34 8 -45z m-40 -10 c0 -16 -2 -15 -8 5 -4 14 -8 34 -8 45 0 16 2 15 8 -5 4
-14 8 -34 8 -45z m-101 23 c-3 -8 -6 -5 -6 6 -1 11 2 17 5 13 3 -3 4 -12 1
-19z m-50 -10 c-3 -8 -6 -5 -6 6 -1 11 2 17 5 13 3 -3 4 -12 1 -19z m100 0
c-3 -8 -6 -5 -6 6 -1 11 2 17 5 13 3 -3 4 -12 1 -19z m130 -10 c-3 -8 -6 -5
-6 6 -1 11 2 17 5 13 3 -3 4 -12 1 -19z m40 0 c-3 -8 -6 -5 -6 6 -1 11 2 17 5
13 3 -3 4 -12 1 -19z m-210 -20 c-3 -8 -6 -5 -6 6 -1 11 2 17 5 13 3 -3 4 -12
1 -19z m340 0 c-3 -8 -6 -5 -6 6 -1 11 2 17 5 13 3 -3 4 -12 1 -19z m-720 -25
c-3 -10 -5 -4 -5 12 0 17 2 24 5 18 2 -7 2 -21 0 -30z m330 15 c-3 -8 -6 -5
-6 6 -1 11 2 17 5 13 3 -3 4 -12 1 -19z m100 0 c-3 -8 -6 -5 -6 6 -1 11 2 17
5 13 3 -3 4 -12 1 -19z m282 -28 c0 -9 -4 -8 -9 5 -5 11 -9 27 -9 35 0 9 4 8
9 -5 5 -11 9 -27 9 -35z m-192 18 c-3 -8 -6 -5 -6 6 -1 11 2 17 5 13 3 -3 4
-12 1 -19z m40 0 c-3 -8 -6 -5 -6 6 -1 11 2 17 5 13 3 -3 4 -12 1 -19z m40 0
c-3 -8 -6 -5 -6 6 -1 11 2 17 5 13 3 -3 4 -12 1 -19z m-120 -10 c-3 -8 -6 -5
-6 6 -1 11 2 17 5 13 3 -3 4 -12 1 -19z m250 -10 c-3 -8 -6 -5 -6 6 -1 11 2
17 5 13 3 -3 4 -12 1 -19z m-390 -10 c-3 -8 -6 -5 -6 6 -1 11 2 17 5 13 3 -3
4 -12 1 -19z m50 0 c-3 -8 -6 -5 -6 6 -1 11 2 17 5 13 3 -3 4 -12 1 -19z m50
0 c-3 -8 -6 -5 -6 6 -1 11 2 17 5 13 3 -3 4 -12 1 -19z m90 -10 c-3 -8 -6 -5
-6 6 -1 11 2 17 5 13 3 -3 4 -12 1 -19z m40 0 c-3 -8 -6 -5 -6 6 -1 11 2 17 5
13 3 -3 4 -12 1 -19z m40 0 c-3 -8 -6 -5 -6 6 -1 11 2 17 5 13 3 -3 4 -12 1
-19z m-120 -10 c-3 -8 -6 -5 -6 6 -1 11 2 17 5 13 3 -3 4 -12 1 -19z m230 -10
c-3 -8 -6 -5 -6 6 -1 11 2 17 5 13 3 -3 4 -12 1 -19z m20 0 c-3 -8 -6 -5 -6 6
-1 11 2 17 5 13 3 -3 4 -12 1 -19z m-390 -10 c-3 -8 -6 -5 -6 6 -1 11 2 17 5
13 3 -3 4 -12 1 -19z m50 0 c-3 -8 -6 -5 -6 6 -1 11 2 17 5 13 3 -3 4 -12 1
-19z m50 0 c-3 -8 -6 -5 -6 6 -1 11 2 17 5 13 3 -3 4 -12 1 -19z m90 -10 c-3
-8 -6 -5 -6 6 -1 11 2 17 5 13 3 -3 4 -12 1 -19z m40 0 c-3 -8 -6 -5 -6 6 -1
11 2 17 5 13 3 -3 4 -12 1 -19z m-80 -10 c-3 -8 -6 -5 -6 6 -1 11 2 17 5 13 3
-3 4 -12 1 -19z m250 -10 c-3 -8 -6 -5 -6 6 -1 11 2 17 5 13 3 -3 4 -12 1 -19z
m-340 -10 c-3 -8 -6 -5 -6 6 -1 11 2 17 5 13 3 -3 4 -12 1 -19z m140 -10 c-3
-8 -6 -5 -6 6 -1 11 2 17 5 13 3 -3 4 -12 1 -19z m-40 -10 c-3 -8 -6 -5 -6 6
-1 11 2 17 5 13 3 -3 4 -12 1 -19z m538 2 c-38 -5 -42 -7 -17 -8 26 -2 32 -6
31 -24 -1 -15 -3 -17 -6 -7 -3 14 -28 18 -146 25 l-142 9 110 6 c61 3 135 5
165 5 l55 1 -50 -7z m251 -5 c13 -12 10 -15 -19 -20 -39 -8 -120 11 -112 25
10 16 114 12 131 -5z m-879 -17 c-3 -8 -6 -5 -6 6 -1 11 2 17 5 13 3 -3 4 -12
1 -19z m703 2 c0 -5 -5 -21 -12 -35 -9 -19 -14 -22 -21 -13 -6 9 -7 6 -4 -10
3 -12 1 -20 -4 -16 -5 3 -9 23 -9 45 0 35 3 39 25 39 14 0 25 -4 25 -10z
m-353 -22 c-3 -8 -6 -5 -6 6 -1 11 2 17 5 13 3 -3 4 -12 1 -19z m417 -26 c-6
-21 -24 -29 -37 -16 -3 3 -1 19 5 36 9 25 13 28 24 16 8 -7 11 -23 8 -36z
m-63 1 c-12 -20 -14 -14 -5 12 4 9 9 14 11 11 3 -2 0 -13 -6 -23z m199 -7 c0
-14 -41 -26 -87 -26 -37 0 -23 24 18 31 57 10 69 10 69 -5z m-503 -2 c-3 -3
-12 -4 -19 -1 -8 3 -5 6 6 6 11 1 17 -2 13 -5z m-572 -54 l-90 -6 73 -2 c61
-2 72 -5 72 -19 0 -12 -3 -14 -8 -6 -5 8 -59 13 -169 15 -89 2 -159 6 -155 10
8 8 125 14 272 14 l95 0 -90 -6z m296 -7 c13 -15 11 -15 -24 -9 -27 5 -37 4
-32 -3 8 -14 -8 -14 -58 1 -32 10 -36 13 -21 19 37 15 121 10 135 -8z m-196
-13 c6 -9 -20 -80 -29 -80 -4 0 -6 20 -6 45 0 33 4 45 14 45 8 0 17 -4 21 -10z
m730 -17 c-7 -30 -28 -49 -33 -32 -7 20 9 59 24 59 13 0 15 -6 9 -27z m-1069
5 c4 -7 4 -10 -1 -6 -4 4 -14 3 -22 -3 -13 -11 -19 2 -6 14 10 11 21 8 29 -5z
m354 -33 c-7 -20 -14 -34 -17 -31 -3 2 0 21 7 41 7 20 14 34 17 31 3 -2 0 -21
-7 -41z m74 13 c12 -35 1 -58 -28 -58 -34 0 -38 12 -21 55 18 40 35 42 49 3z
m101 2 c-16 -4 -43 -8 -60 -8 -29 0 -29 0 -5 8 14 4 41 8 60 8 l35 0 -30 -8z
m33 -27 c-4 -23 -97 -41 -109 -21 -14 22 13 33 84 37 22 1 28 -3 25 -16z m113
-5 c10 -13 18 -28 19 -34 0 -11 -307 -80 -316 -71 -3 2 -2 16 2 31 5 21 12 26
37 26 17 0 59 5 94 11 53 9 66 15 73 35 13 32 64 33 91 2z m-668 5 c-7 -2 -19
-2 -25 0 -7 3 -2 5 12 5 14 0 19 -2 13 -5z m1037 -23 c-10 -6 -11 -10 -2 -10
6 0 12 -5 12 -10 0 -12 -28 -25 -36 -17 -9 8 15 47 29 47 7 0 6 -4 -3 -10z
m-840 -10 c0 -13 -154 -111 -158 -100 -2 6 5 27 15 47 13 27 28 41 53 50 43
15 90 16 90 3z m20 -30 c-62 -46 -63 -49 -6 -25 61 26 76 25 76 -3 0 -17 -230
-166 -240 -155 -5 4 1 9 47 41 10 7 3 5 -15 -3 -28 -14 -33 -14 -38 -1 -3 8
-4 23 -2 33 3 20 187 148 197 138 3 -4 -5 -15 -19 -25z m565 3 c-41 -3 -64 -7
-56 -12 7 -5 -12 -8 -46 -8 l-58 1 50 12 c28 7 79 12 115 11 l65 -1 -70 -3z
m200 -3 c-11 -5 -42 -8 -70 -8 l-50 1 50 7 c28 4 59 7 70 8 l20 1 -20 -9z
m-631 -18 c7 -11 -14 -102 -24 -102 -5 0 -17 -3 -27 -6 -15 -5 -15 -4 -3 5 9
6 10 11 3 11 -8 0 -9 10 -1 38 14 52 38 77 52 54z m704 1 c-16 -2 -40 -2 -55
0 -16 2 -3 4 27 4 30 0 43 -2 28 -4z m-445 -10 c-7 -2 -19 -2 -25 0 -7 3 -2 5
12 5 14 0 19 -2 13 -5z m230 0 c-13 -2 -35 -2 -50 0 -16 2 -5 4 22 4 28 0 40
-2 28 -4z m335 0 c-16 -2 -40 -2 -55 0 -16 2 -3 4 27 4 30 0 43 -2 28 -4z
m-593 -13 l20 -9 -20 0 c-11 0 -29 4 -40 9 l-20 9 20 0 c11 0 29 -4 40 -9z
m143 3 c-15 -2 -42 -2 -60 0 -18 2 -6 4 27 4 33 0 48 -2 33 -4z m297 -15 c7
-6 -2 -7 -25 -3 -19 3 -57 10 -85 15 -43 8 -40 8 25 4 41 -3 80 -10 85 -16z
m229 13 c3 -4 -6 -6 -19 -3 -14 2 -25 6 -25 8 0 8 39 4 44 -5z m-737 -7 c-3
-3 -12 -4 -19 -1 -8 3 -5 6 6 6 11 1 17 -2 13 -5z m393 -8 c41 -8 64 -14 50
-14 -14 -1 -63 5 -110 12 -47 8 -69 14 -50 14 19 1 69 -5 110 -12z m385 4 c3
-6 -1 -7 -9 -4 -18 7 -21 14 -7 14 6 0 13 -4 16 -10z m-716 -16 c8 -8 -105 -2
-124 5 -11 5 10 6 50 3 39 -2 72 -6 74 -8z m124 9 c-13 -2 -35 -2 -50 0 -16 2
-5 4 22 4 28 0 40 -2 28 -4z m475 -20 c6 -9 12 -26 12 -37 0 -20 -1 -20 -16 2
-8 12 -23 22 -33 22 -14 0 -17 -6 -13 -26 l5 -27 -22 22 c-30 30 -61 28 -61
-5 0 -23 -1 -24 -16 -9 -24 24 -67 16 -74 -15 -5 -22 -7 -23 -13 -7 -5 14 -15
17 -39 15 -32 -3 -33 -5 -31 -43 2 -36 1 -37 -8 -15 -12 31 -26 40 -62 40 -22
0 -27 -4 -23 -17 3 -10 7 -36 10 -58 6 -40 6 -39 -12 10 l-17 50 -45 -3 -45
-2 34 15 c18 8 44 15 56 15 13 0 31 3 40 6 13 6 14 9 3 16 -8 6 0 7 25 3 21
-3 48 -3 60 1 22 7 22 8 -3 16 -16 5 -7 6 26 3 28 -3 60 -2 69 2 18 6 17 7 -1
14 -10 4 6 5 36 3 42 -3 50 -2 35 6 -16 8 -9 9 27 5 43 -4 75 8 46 18 -7 2 -2
2 12 0 14 -2 31 -11 38 -20z m-761 11 c-3 -3 -12 -4 -19 -1 -8 3 -5 6 6 6 11
1 17 -2 13 -5z m473 -15 c16 -9 -18 -6 -115 11 -43 8 -39 8 25 4 41 -3 82 -10
90 -15z m-150 -3 c41 -8 64 -14 50 -14 -14 -1 -63 5 -110 12 -47 8 -69 14 -50
14 19 1 69 -5 110 -12z m610 -138 c27 -110 23 -137 -22 -171 -37 -27 -45 -16
-19 26 26 43 26 67 0 179 -22 94 -19 150 5 93 7 -16 23 -74 36 -127z m-882
135 c-16 -2 -40 -2 -55 0 -16 2 -3 4 27 4 30 0 43 -2 28 -4z m-198 -17 c-20
-19 -211 -129 -216 -124 -3 4 215 136 226 138 2 0 -2 -6 -10 -14z m420 -6 c34
-8 35 -8 5 -8 -16 0 -64 6 -105 13 l-75 14 70 -5 c39 -3 86 -9 105 -14z m-162
-14 c57 -8 106 -17 110 -21 4 -4 -18 -4 -48 0 -189 26 -231 33 -200 34 19 0
81 -6 138 -13z m-251 -20 c-3 -8 -13 -53 -23 -101 l-17 -88 -61 -38 c-34 -22
-70 -38 -81 -37 -29 4 -31 38 -4 60 l24 19 -24 -11 c-32 -16 -43 -2 -39 51 l3
43 100 58 c101 59 132 70 122 44z m53 -8 c-1 -38 -13 -58 -37 -58 -19 0 -24 4
-19 16 3 9 6 22 6 29 0 12 14 19 43 24 4 0 7 -5 7 -11z m47 6 c-3 -3 -12 -4
-19 -1 -8 3 -5 6 6 6 11 1 17 -2 13 -5z m91 -11 c-10 -2 -26 -2 -35 0 -10 3
-2 5 17 5 19 0 27 -2 18 -5z m100 -10 c-10 -2 -26 -2 -35 0 -10 3 -2 5 17 5
19 0 27 -2 18 -5z m-130 -10 c-10 -2 -26 -2 -35 0 -10 3 -2 5 17 5 19 0 27 -2
18 -5z m145 -21 c14 -12 33 -66 73 -205 3 -9 17 -31 32 -49 21 -25 23 -29 6
-20 -27 14 -38 39 -74 157 -17 55 -36 104 -42 110 -8 7 -9 5 -5 -8 5 -14 3
-17 -11 -13 -46 14 -113 25 -164 27 -98 4 -55 14 60 14 77 0 114 -4 125 -13z
m-110 -18 c36 -6 38 -9 57 -73 l21 -65 -23 -18 -23 -18 23 0 c34 0 26 -17 -14
-30 -44 -15 -121 -7 -165 15 -46 24 -20 37 61 30 l65 -4 -60 12 c-80 17 -87
22 -80 60 17 87 24 97 63 97 20 0 54 -3 75 -6z m-176 -94 c-10 -45 -17 -56
-35 -58 -25 -4 -26 2 -9 77 9 38 19 57 33 61 25 9 28 -9 11 -80z m290 63 c-4
-3 -3 -11 2 -17 5 -6 21 -50 36 -98 27 -91 60 -133 92 -121 10 4 14 2 10 -4
-4 -7 7 -16 28 -23 20 -7 35 -18 35 -27 0 -23 -74 -11 -113 18 -17 12 -36 22
-42 22 -7 0 -12 7 -11 16 1 9 -3 15 -9 14 -5 -1 -10 8 -11 20 0 12 -12 60 -26
107 -19 61 -23 87 -14 92 14 10 32 10 23 1z m580 -85 c-3 -8 -6 -5 -6 6 -1 11
2 17 5 13 3 -3 4 -12 1 -19z m76 -25 c5 -23 3 -33 -6 -33 -9 0 -12 11 -9 36 5
41 7 40 15 -3z m-138 -60 c-2 -7 -12 -13 -20 -13 -14 0 -15 2 -2 14 8 8 13 27
11 43 l-4 28 10 -30 c5 -16 8 -36 5 -42z m78 15 c-2 -5 -12 -8 -21 -7 -11 0
-12 3 -4 6 6 2 12 17 13 31 l1 27 7 -25 c5 -14 6 -28 4 -32z m117 48 c0 -2 -8
-10 -17 -17 -16 -13 -17 -12 -4 4 13 16 21 21 21 13z m-1077 -43 c-4 -24 -3
-25 7 -10 11 17 50 24 50 9 0 -4 -7 -18 -16 -30 -15 -22 -44 -30 -44 -12 0 6
-9 1 -20 -10 -19 -19 -22 -19 -50 -5 -16 8 -31 19 -34 24 -7 10 94 72 105 66
3 -3 4 -17 2 -32z m796 -35 c1 -11 -6 -18 -16 -18 -13 0 -14 3 -6 11 7 7 10
26 8 43 -4 28 -4 29 4 6 5 -14 9 -33 10 -42z m-102 20 c-3 -7 -5 -2 -5 12 0
14 2 19 5 13 2 -7 2 -19 0 -25z m348 2 c3 -6 -5 -14 -20 -20 -34 -13 -408
-110 -424 -110 -27 0 -2 26 40 42 24 9 37 17 29 18 -10 1 -7 5 8 12 12 6 22
18 23 27 0 14 1 14 6 1 7 -19 23 -30 43 -30 13 0 13 2 0 11 -12 9 -12 10 4 5
10 -4 35 -3 55 0 31 6 33 8 16 16 -16 7 -15 7 6 3 14 -2 64 4 110 14 103 24
97 23 104 11z m-428 -42 c-3 -7 -5 -2 -5 12 0 14 2 19 5 13 2 -7 2 -19 0 -25z
m-303 -2 c42 -13 116 -71 116 -92 0 -4 -40 -4 -89 -1 -135 9 -291 52 -276 77
18 29 172 39 249 16z m326 -26 c13 -8 13 -10 -2 -10 -9 0 -24 -3 -34 -7 -16
-6 -17 -5 -4 10 18 19 20 20 40 7z m376 -15 c3 -13 4 -30 1 -37 -3 -7 -6 -1
-6 14 -1 33 -9 38 -38 27 -32 -12 -29 -29 5 -30 l27 0 -23 -12 c-20 -9 -23
-16 -19 -46 5 -31 4 -33 -5 -13 -16 32 -36 28 -31 -5 3 -26 3 -27 -6 -5 -15
33 -43 29 -36 -5 5 -26 5 -26 -4 -5 -13 29 -41 29 -41 0 0 -21 0 -21 -14 -2
-11 14 -11 21 -3 26 7 5 3 8 -10 8 -21 0 -22 -4 -18 -37 4 -30 3 -34 -5 -20
-14 22 -50 23 -50 0 0 -13 -3 -14 -12 -5 -18 18 -48 15 -48 -5 0 -13 -3 -14
-12 -5 -16 16 -47 15 -54 -1 -3 -8 -17 -11 -41 -9 l-36 5 7 -64 c4 -35 9 -82
12 -104 4 -27 2 -35 -4 -25 -5 8 -14 58 -20 112 -7 53 -15 103 -18 112 -4 12
-1 16 12 14 78 -6 86 17 9 27 -68 8 -84 0 -50 -27 14 -10 25 -25 25 -31 0 -6
-7 -1 -16 11 -8 12 -22 22 -30 22 -8 0 -14 5 -14 10 0 6 -38 10 -93 10 -121 0
-310 48 -373 94 -10 8 20 -1 68 -20 205 -82 360 -84 675 -8 58 14 107 23 110
20 6 -5 -43 -19 -162 -46 -44 -10 -69 -19 -55 -21 24 -2 24 -2 3 -6 -33 -6
-28 -25 5 -21 19 2 26 8 24 21 -2 12 4 17 20 17 17 0 19 -3 9 -9 -17 -11 1
-23 23 -15 13 5 14 9 5 20 -9 11 -8 14 5 14 9 0 16 -4 16 -10 0 -5 9 -10 20
-10 25 0 27 20 3 21 -10 0 29 13 87 29 58 16 116 33 130 39 36 14 39 14 46
-14z m-496 -99 c0 -11 -19 -15 -25 -6 -3 5 1 10 9 10 9 0 16 -2 16 -4z m-71
-72 c6 -30 16 -79 22 -110 8 -41 19 -64 40 -83 24 -23 30 -39 40 -106 6 -44
12 -81 14 -83 1 -1 47 -15 101 -31 54 -15 102 -35 108 -43 10 -17 -1 -59 -12
-42 -4 6 -15 14 -26 17 -12 5 -16 13 -12 24 6 15 5 15 -11 2 -17 -15 -53 -15
-53 0 0 4 5 12 12 19 18 18 -3 14 -24 -4 -13 -13 -21 -14 -31 -5 -8 6 -17 7
-22 3 -4 -4 -2 3 4 16 10 18 9 22 -3 22 -8 0 -19 -7 -24 -16 -7 -12 -15 -14
-33 -8 -13 4 -28 7 -34 5 -5 -1 -7 1 -3 5 4 4 4 12 -1 18 -5 6 -28 94 -51 196
-22 102 -43 190 -45 196 -2 6 4 11 12 10 9 0 17 5 19 12 1 7 0 8 -3 2 -8 -16
-21 -12 -34 11 -8 17 -8 23 2 29 23 15 38 -2 48 -56z m-114 6 c-29 -14 -277
-71 -283 -66 -5 5 -1 6 163 47 115 28 155 34 120 19z m82 -141 l6 -61 -29 4
-29 3 3 75 c1 41 5 82 9 90 9 24 32 -42 40 -111z m200 99 c-3 -8 -6 -5 -6 6
-1 11 2 17 5 13 3 -3 4 -12 1 -19z m70 -10 c-3 -7 -5 -2 -5 12 0 14 2 19 5 13
2 -7 2 -19 0 -25z m-337 -63 c0 -50 -4 -85 -10 -85 -5 0 -10 17 -10 39 0 44
11 131 16 131 2 0 4 -38 4 -85z m-103 69 c-3 -3 -12 -4 -19 -1 -8 3 -5 6 6 6
11 1 17 -2 13 -5z m-40 -10 c-3 -3 -12 -4 -19 -1 -8 3 -5 6 6 6 11 1 17 -2 13
-5z m94 -74 c-3 -36 -9 -60 -12 -55 -9 14 2 138 11 128 3 -4 4 -37 1 -73z
m-346 60 c-3 -5 -11 -10 -17 -10 -6 0 -20 -7 -30 -17 -10 -9 -18 -11 -18 -5 0
6 12 18 28 26 32 18 46 20 37 6z m85 -3 c0 -14 -23 -38 -50 -52 -8 -4 -2 4 14
17 17 14 26 30 22 36 -4 7 -2 12 3 12 6 0 11 -6 11 -13z m-51 -1 c-19 -20 -80
-54 -77 -44 2 7 20 21 39 30 34 18 47 22 38 14z m1011 -82 c0 -23 -3 -25 -26
-20 -15 4 -40 10 -58 13 l-31 7 30 12 c17 7 42 13 58 14 23 0 27 -4 27 -26z
m-1053 10 c-3 -3 -12 -4 -19 -1 -8 3 -5 6 6 6 11 1 17 -2 13 -5z m447 -64 c39
-1 47 -3 34 -11 -14 -8 -18 -23 -18 -67 0 -57 -19 -102 -43 -102 -8 0 -8 3 1
12 7 7 12 18 12 26 0 10 -5 8 -17 -6 -10 -11 -33 -24 -52 -27 -31 -7 -33 -5
-26 11 16 34 18 156 3 166 -9 7 -2 8 21 4 18 -3 57 -6 85 -6z m314 -9 c12 -10
18 -22 14 -26 -4 -4 0 -6 8 -3 8 3 21 -2 29 -9 7 -8 19 -12 25 -10 7 3 12 -3
12 -13 0 -12 -6 -16 -20 -12 -11 3 -17 1 -13 -5 4 -6 -26 -19 -72 -32 -93 -25
-95 -25 -88 -7 3 7 0 19 -6 26 -9 10 -9 11 3 5 12 -6 13 -5 3 5 -7 8 -9 19 -4
29 9 16 11 23 11 39 0 11 39 30 61 31 9 1 26 -7 37 -18z m-445 -18 c-7 -2 -19
-2 -25 0 -7 3 -2 5 12 5 14 0 19 -2 13 -5z m-60 -10 c-7 -2 -19 -2 -25 0 -7 3
-2 5 12 5 14 0 19 -2 13 -5z m-58 -13 c-11 -5 -27 -9 -35 -9 -9 0 -8 4 5 9 11
5 27 9 35 9 9 0 8 -4 -5 -9z m835 0 c8 -5 11 -10 5 -10 -5 0 -17 5 -25 10 -8
5 -10 10 -5 10 6 0 17 -5 25 -10z m-725 -17 c-34 -9 -75 -43 -75 -63 0 -37 43
-52 225 -80 56 -8 54 -9 -23 -4 -46 3 -103 11 -127 19 -37 11 -45 10 -49 -1
-3 -8 -19 -17 -36 -20 -37 -8 -38 -19 -2 -33 l27 -11 -30 6 c-82 16 -125 56
-104 97 11 21 11 21 -7 8 -10 -7 -3 1 16 18 36 32 135 70 180 69 20 0 21 -1 5
-5z m-245 -34 c-30 -16 -66 -40 -80 -52 l-25 -22 20 24 c20 24 112 81 130 81
6 0 -15 -14 -45 -31z m214 -4 c-10 -8 -23 -14 -29 -14 -5 0 -1 6 9 14 11 8 24
15 30 15 5 0 1 -7 -10 -15z m939 0 c1 -5 -25 -20 -58 -32 -33 -12 -55 -22 -48
-22 15 -1 5 -43 -15 -58 -37 -30 -73 2 -40 35 18 18 2 15 -101 -19 -103 -35
-106 -34 -250 8 l-56 16 95 27 c138 39 163 43 157 25 -4 -10 -1 -12 10 -8 10
4 14 2 9 -5 -7 -11 31 -28 41 -18 4 3 11 2 17 -4 15 -11 221 51 209 64 -4 4 0
7 10 5 10 -2 19 -8 20 -14z m11 -52 c-15 -24 -34 -28 -34 -6 0 26 21 46 34 33
7 -7 7 -16 0 -27z m-63 -17 c-13 -32 -35 -36 -25 -3 6 21 25 40 31 33 2 -2 -1
-15 -6 -30z m-1123 -44 c25 -2 42 -8 42 -16 0 -27 60 -68 136 -93 67 -22 103
-26 234 -30 147 -5 230 4 315 32 17 5 17 5 4 -4 -68 -44 -338 -58 -488 -26
-72 16 -81 16 -95 2 -9 -9 -13 -18 -8 -20 7 -5 154 -37 167 -37 3 0 3 -5 0
-10 -8 -13 -71 -3 -170 27 -170 52 -245 129 -203 206 l12 22 6 -25 c5 -21 12
-25 48 -28z m957 -4 c-8 -28 -32 -48 -57 -48 -31 0 -20 37 17 58 33 19 47 15
40 -10z m-95 -32 c0 -33 -14 -40 -34 -17 -17 18 -16 20 1 30 27 16 33 13 33
-13z m-650 -10 c33 1 38 0 20 -5 -19 -6 -5 -10 58 -20 93 -15 114 -36 25 -25
-70 8 -180 40 -189 55 -4 8 1 8 17 3 13 -5 44 -8 69 -8z m751 -30 c-51 -54
-204 -116 -336 -136 -74 -11 -117 -7 -59 5 88 19 196 59 244 90 61 39 82 45
55 15 -10 -11 -14 -20 -8 -20 5 0 20 12 34 26 24 27 53 42 78 43 10 1 8 -6 -8
-23z m-501 -16 c0 -5 -16 -10 -35 -10 -19 0 -35 5 -35 10 0 6 16 10 35 10 19
0 35 -4 35 -10z"/>
<path d="M3068 2943 c7 -3 16 -2 19 1 4 3 -2 6 -13 5 -11 0 -14 -3 -6 -6z"/>
<path d="M2333 2493 c9 -2 25 -2 35 0 9 3 1 5 -18 5 -19 0 -27 -2 -17 -5z"/>
<path d="M2738 2213 c7 -3 16 -2 19 1 4 3 -2 6 -13 5 -11 0 -14 -3 -6 -6z"/>
<path d="M2950 2170 c0 -5 7 -10 15 -10 8 0 15 5 15 10 0 6 -7 10 -15 10 -8 0
-15 -4 -15 -10z"/>
<path d="M2910 2160 c0 -5 7 -10 15 -10 8 0 15 5 15 10 0 6 -7 10 -15 10 -8 0
-15 -4 -15 -10z"/>
<path d="M2870 2150 c0 -5 7 -10 15 -10 8 0 15 5 15 10 0 6 -7 10 -15 10 -8 0
-15 -4 -15 -10z"/>
<path d="M2820 2140 c0 -5 9 -10 21 -10 11 0 17 5 14 10 -3 6 -13 10 -21 10
-8 0 -14 -4 -14 -10z"/>
<path d="M2970 2140 c-13 -8 -12 -10 3 -10 9 0 17 5 17 10 0 12 -1 12 -20 0z"/>
<path d="M2930 2130 c-13 -8 -12 -10 3 -10 9 0 17 5 17 10 0 12 -1 12 -20 0z"/>
<path d="M2890 2120 c-13 -8 -12 -10 3 -10 9 0 17 5 17 10 0 12 -1 12 -20 0z"/>
<path d="M2583 2113 c9 -2 25 -2 35 0 9 3 1 5 -18 5 -19 0 -27 -2 -17 -5z"/>
<path d="M2780 2090 c0 -13 11 -13 30 0 12 8 11 10 -7 10 -13 0 -23 -4 -23
-10z"/>
<path d="M2730 2080 c-13 -9 -13 -10 0 -10 8 0 22 5 30 10 13 9 13 10 0 10 -8
0 -22 -5 -30 -10z"/>
<path d="M2675 2070 c-19 -8 -19 -9 2 -9 12 -1 25 4 28 9 7 12 -2 12 -30 0z"/>
<path d="M2585 2050 c-4 -7 3 -8 22 -4 38 9 42 14 10 14 -14 0 -29 -5 -32 -10z"/>
<path d="M2550 1770 c-13 -8 -12 -10 3 -10 9 0 17 5 17 10 0 12 -1 12 -20 0z"/>
<path d="M2423 1765 c0 -27 2 -38 4 -22 2 15 2 37 0 50 -2 12 -4 0 -4 -28z"/>
<path d="M2328 3654 c-21 -6 -21 -6 -7 -37 11 -25 12 -25 198 -30 199 -5 247
-14 396 -74 135 -55 233 -121 346 -233 136 -135 216 -258 268 -413 15 -44 22
-52 46 -55 26 -3 27 -2 22 28 -4 17 -20 65 -37 107 -102 254 -304 469 -555
593 -183 90 -272 111 -485 115 -96 2 -183 2 -192 -1z"/>
<path d="M1671 3320 c-115 -114 -207 -258 -267 -418 -32 -84 -31 -92 10 -92
33 0 35 3 51 53 39 120 115 245 236 389 27 32 38 55 41 91 3 26 4 47 3 47 -2
0 -35 -32 -74 -70z"/>
<path d="M947 2673 c-4 -3 -7 -13 -7 -22 0 -12 3 -12 12 -3 7 7 20 12 30 12
30 0 22 -46 -17 -89 -19 -21 -35 -41 -35 -45 0 -3 27 -6 60 -6 56 0 60 1 60
23 0 21 -4 23 -30 19 l-31 -4 31 30 c50 50 36 92 -30 92 -20 0 -40 -3 -43 -7z"/>
<path d="M1099 2661 c-18 -14 -24 -29 -24 -59 0 -51 27 -82 70 -82 43 0 70 31
70 82 0 45 -30 78 -70 78 -13 0 -33 -9 -46 -19z m65 -17 c15 -39 3 -104 -19
-104 -16 0 -25 22 -25 60 0 38 9 60 25 60 7 0 16 -7 19 -16z"/>
<path d="M3803 2663 c-7 -2 -13 -14 -13 -26 0 -20 1 -20 13 -3 16 22 50 18 55
-6 2 -9 -15 -37 -37 -61 -23 -24 -41 -47 -41 -51 0 -3 27 -6 60 -6 56 0 60 1
60 24 0 20 -4 23 -27 18 l-28 -5 28 30 c45 48 31 94 -27 92 -17 0 -37 -3 -43
-6z"/>
<path d="M3949 2651 c-18 -14 -24 -29 -24 -59 0 -51 27 -82 70 -82 43 0 70 31
70 82 0 45 -30 78 -70 78 -13 0 -33 -9 -46 -19z m65 -17 c15 -39 3 -104 -19
-104 -16 0 -25 22 -25 60 0 38 9 60 25 60 7 0 16 -7 19 -16z"/>
<path d="M962 2488 c-7 -7 -12 -19 -12 -27 0 -11 4 -11 20 4 21 19 50 14 50
-10 0 -8 -16 -32 -35 -54 -19 -21 -35 -44 -35 -50 0 -7 21 -11 55 -11 48 0 55
2 55 20 0 15 -7 20 -27 20 l-28 0 28 25 c46 44 31 95 -28 95 -17 0 -36 -5 -43
-12z"/>
<path d="M1092 2458 c3 -40 5 -42 33 -43 23 0 31 -5 33 -23 4 -27 -23 -40 -49
-24 -11 7 -20 8 -24 2 -15 -24 80 -41 103 -18 15 15 15 61 0 76 -7 7 -27 12
-45 12 -18 0 -33 5 -33 10 0 6 18 10 40 10 33 0 40 3 40 20 0 17 -7 20 -51 20
l-50 0 3 -42z"/>
<path d="M3812 2478 c-7 -7 -12 -19 -12 -27 0 -11 4 -11 20 4 21 19 50 14 50
-10 0 -8 -16 -32 -35 -54 -19 -21 -35 -44 -35 -50 0 -7 21 -11 55 -11 48 0 55
2 55 20 0 15 -7 20 -27 20 l-28 0 28 25 c46 44 31 95 -28 95 -17 0 -36 -5 -43
-12z"/>
<path d="M3942 2448 c3 -40 5 -42 33 -43 23 0 31 -5 33 -23 4 -27 -23 -40 -49
-24 -11 7 -20 8 -24 2 -15 -24 80 -41 103 -18 15 15 15 61 0 76 -7 7 -27 12
-45 12 -18 0 -33 5 -33 10 0 6 18 10 40 10 33 0 40 3 40 20 0 17 -7 20 -51 20
l-50 0 3 -42z"/>
<path d="M790 2174 c0 -50 99 -342 152 -447 138 -276 376 -536 643 -704 297
-187 694 -283 1041 -254 436 38 801 205 1099 505 227 228 382 496 455 789 12
45 23 90 26 100 5 16 -13 17 -288 17 l-294 0 -18 -57 c-48 -151 -157 -323
-288 -452 -97 -97 -199 -167 -355 -245 -154 -77 -239 -97 -443 -103 -151 -5
-174 -3 -280 21 -200 45 -410 166 -576 330 -124 123 -206 245 -265 397 l-43
109 -283 0 c-156 0 -283 -3 -283 -6z m580 -370 c26 -44 30 -58 20 -69 -10 -12
-9 -15 10 -15 23 0 79 -50 81 -72 0 -7 49 -58 109 -113 94 -88 105 -101 89
-110 -20 -11 -109 -122 -109 -137 0 -5 -14 1 -31 13 l-31 22 34 36 c52 55 88
101 88 113 0 6 -9 3 -20 -7 -20 -18 -20 -17 -20 8 0 47 -21 42 -83 -22 l-60
-62 -23 22 -23 21 66 61 c59 56 63 62 47 74 -10 7 -28 13 -41 13 -20 0 -23 5
-23 34 0 35 -26 74 -41 59 -4 -4 -3 -30 3 -57 7 -34 7 -55 -1 -72 -22 -48
-101 -38 -124 16 -6 14 -16 32 -23 40 -10 12 -8 18 12 33 24 18 24 18 24 -10
0 -30 24 -73 41 -73 7 0 8 23 4 65 -6 56 -5 69 11 87 11 12 14 19 8 15 -7 -4
-10 2 -7 17 3 13 0 33 -6 45 -10 18 -15 19 -36 9 -28 -13 -32 -26 -10 -34 22
-9 18 -19 -10 -32 -22 -10 -25 -9 -25 8 0 23 -12 25 -39 8 -15 -9 -17 -16 -9
-34 6 -13 23 -27 37 -32 l26 -9 -29 -14 c-18 -8 -31 -10 -33 -4 -2 6 -19 34
-37 64 l-34 54 57 28 c31 16 69 39 86 53 16 13 33 22 37 20 4 -3 21 -29 38
-60z m2410 -15 c41 -7 76 -14 78 -15 9 -5 -35 -63 -45 -59 -7 3 -19 8 -27 11
-10 4 -20 -5 -30 -25 -15 -28 -15 -31 5 -45 20 -14 20 -16 5 -37 -9 -13 -16
-19 -16 -12 0 12 -93 132 -116 150 -13 9 -13 16 -4 33 13 24 11 24 150 -1z
m-200 -98 c0 -9 123 -107 143 -114 7 -2 3 -14 -12 -33 l-24 -29 -54 52 c-30
28 -68 57 -84 63 l-29 12 23 29 c22 28 37 36 37 20z m-25 -101 c3 -6 -3 -10
-15 -10 -64 0 -79 -52 -30 -101 23 -24 37 -30 62 -27 27 2 35 9 43 36 11 39
31 36 28 -4 -3 -36 -53 -84 -88 -84 -66 0 -126 53 -125 112 1 71 93 129 125
78z m-97 -191 c52 -67 52 -68 31 -83 -19 -13 -28 -12 -87 11 -36 13 -70 27
-75 30 -18 11 12 -33 47 -69 l35 -36 -24 -16 c-23 -15 -25 -15 -25 0 0 18 -83
129 -106 142 -14 8 -11 12 14 30 l30 22 68 -26 c73 -27 73 -26 15 38 -21 24
-22 29 -10 44 12 15 14 15 24 -1 5 -10 34 -48 63 -86z m-1712 -51 c-18 -21
-41 -53 -52 -73 -18 -34 -18 -35 1 -50 11 -8 32 -14 47 -12 27 3 28 3 11 -17
-10 -12 -18 -22 -19 -24 -1 -2 -31 16 -68 39 -54 34 -64 44 -52 53 20 16 96
136 96 153 0 9 10 7 34 -9 l34 -22 -32 -38z m1487 -56 c29 -27 64 -57 79 -68
l26 -21 -30 -18 c-30 -18 -31 -17 -48 5 -16 22 -18 22 -43 5 -31 -20 -31 -20
-17 -45 8 -15 6 -21 -9 -30 -29 -15 -31 -13 -31 23 0 46 -20 150 -31 164 -7 8
-4 15 8 22 30 17 42 13 96 -37z m-1272 -11 c67 -68 17 -181 -81 -181 -42 0
-67 15 -85 50 -25 49 -19 88 19 126 46 46 104 48 147 5z m1093 -27 c11 -28 7
-34 -20 -24 -32 13 -62 -2 -70 -34 -8 -32 21 -95 48 -105 46 -17 63 13 33 56
-14 20 -13 22 17 32 17 6 32 10 33 9 1 -2 7 -18 14 -37 15 -45 -5 -76 -58 -92
-48 -14 -80 -7 -113 26 -30 30 -39 74 -23 112 21 49 42 61 121 72 7 0 15 -6
18 -15z m-876 -44 c7 0 12 -13 12 -32 0 -56 14 -64 40 -26 13 18 25 35 26 36
1 2 11 1 22 -2 17 -6 15 -11 -21 -49 -44 -47 -57 -74 -57 -118 0 -27 -2 -29
-27 -23 -41 10 -43 12 -31 45 10 28 -1 118 -19 167 -5 12 -1 14 18 9 13 -4 30
-7 37 -7z m706 -12 c9 -35 7 -41 -8 -29 -8 7 -27 11 -43 9 -23 -2 -27 -7 -25
-28 5 -33 9 -36 32 -22 16 10 20 10 20 -2 0 -8 3 -22 7 -31 5 -14 2 -16 -15
-10 -19 5 -22 3 -22 -24 0 -37 24 -41 63 -11 l25 20 5 -22 c4 -12 5 -24 3 -26
-3 -2 -37 -12 -78 -23 -40 -10 -73 -19 -73 -19 0 0 -1 22 -2 48 -1 26 -10 73
-20 104 l-19 56 65 15 c36 8 69 15 72 16 4 0 9 -9 13 -21z m-324 -59 c0 -29
-1 -30 -22 -15 -33 23 -57 20 -64 -9 -8 -33 2 -43 26 -27 18 11 20 9 20 -23 0
-32 -2 -35 -19 -25 -28 15 -31 13 -31 -20 0 -27 3 -30 32 -30 17 0 39 7 48 15
15 14 16 12 12 -15 l-4 -30 -79 0 c-78 0 -79 0 -68 21 6 13 10 55 7 105 l-3
84 73 0 72 0 0 -31z m88 -26 c3 -91 10 -113 36 -113 12 0 32 7 44 16 21 14 22
14 22 -11 0 -30 -4 -32 -90 -38 l-65 -6 -2 85 c-1 46 -7 93 -13 104 -10 18 -8
20 28 20 l38 0 2 -57z"/>
<path d="M3690 1742 c0 -5 7 -15 15 -22 12 -10 19 -10 27 -2 14 14 11 17 -19
26 -13 4 -23 3 -23 -2z"/>
<path d="M3178 1240 c4 -26 7 -28 24 -19 11 6 18 11 16 12 -1 1 -12 10 -24 20
-20 17 -20 16 -16 -13z"/>
<path d="M1881 1264 c-28 -20 -54 -79 -46 -104 13 -42 64 -29 88 23 20 41 21
69 5 85 -16 16 -19 15 -47 -4z"/>
<path d="M1399 2128 c85 -242 262 -467 477 -601 l41 -25 -15 44 c-11 35 -28
55 -71 89 -146 112 -278 286 -347 457 -32 80 -34 83 -68 86 l-35 3 18 -53z"/>
<path d="M3531 2138 c-31 -105 -166 -324 -245 -397 -16 -15 -26 -35 -26 -53 0
-41 -35 -72 -113 -97 -60 -20 -70 -27 -88 -63 l-20 -39 23 12 c152 80 335 263
438 439 31 52 100 212 100 231 0 5 -13 9 -28 9 -25 0 -30 -5 -41 -42z"/>
<path d="M3138 1743 c7 -3 16 -2 19 1 4 3 -2 6 -13 5 -11 0 -14 -3 -6 -6z"/>
</g>
</svg>
